<svg width="384" height="151" viewBox="0 0 384 151" fill="none" xmlns="http://www.w3.org/2000/svg">
<path d="M0 0H384V153C384 155.761 381.761 158 379 158H4.99999C2.23857 158 0 155.761 0 153V0Z" fill="#F5F5F5"/>
<path d="M106.205 66.3408H108.858C108.82 64.0077 106.902 62.3969 103.987 62.3969C101.117 62.3969 99.0141 63.9821 99.0269 66.3599C99.0205 68.2903 100.382 69.3962 102.594 69.9267L104.019 70.2846C105.445 70.6298 106.237 71.0389 106.244 71.921C106.237 72.8798 105.329 73.5318 103.923 73.5318C102.485 73.5318 101.449 72.867 101.36 71.5567H98.6817C98.752 74.3883 100.778 75.8521 103.955 75.8521C107.151 75.8521 109.03 74.3244 109.037 71.9274C109.03 69.7477 107.388 68.5908 105.112 68.0794L103.936 67.7981C102.798 67.5361 101.846 67.1142 101.865 66.1746C101.865 65.3308 102.613 64.7108 103.968 64.7108C105.291 64.7108 106.103 65.3116 106.205 66.3408ZM117.144 71.4864C117.15 72.8031 116.249 73.4935 115.271 73.4935C114.242 73.4935 113.577 72.7712 113.57 71.6142V65.8486H110.847V72.1C110.854 74.3947 112.196 75.7946 114.171 75.7946C115.648 75.7946 116.709 75.0339 117.15 73.8834H117.252V75.6667H119.867V65.8486H117.144V71.4864ZM124.844 75.8521C126.295 75.8521 127.235 75.2193 127.714 74.3052H127.791V75.6667H130.373V69.0446C130.373 66.7051 128.392 65.7207 126.206 65.7207C123.854 65.7207 122.307 66.8457 121.93 68.6355L124.448 68.84C124.633 68.1881 125.215 67.7087 126.193 67.7087C127.12 67.7087 127.65 68.1753 127.65 68.9807V69.019C127.65 69.6518 126.979 69.7349 125.273 69.9011C123.329 70.0801 121.584 70.7321 121.584 72.9246C121.584 74.8677 122.972 75.8521 124.844 75.8521ZM125.624 73.9729C124.787 73.9729 124.186 73.5829 124.186 72.8351C124.186 72.068 124.819 71.6909 125.778 71.5567C126.372 71.4736 127.344 71.3329 127.67 71.1156V72.1575C127.67 73.1866 126.82 73.9729 125.624 73.9729ZM144.821 68.6483C144.578 66.8393 143.121 65.7207 140.641 65.7207C138.129 65.7207 136.473 66.8841 136.479 68.7761C136.473 70.2463 137.4 71.1987 139.318 71.5822L141.018 71.921C141.874 72.0936 142.264 72.4068 142.277 72.899C142.264 73.4807 141.631 73.8962 140.679 73.8962C139.707 73.8962 139.062 73.4807 138.896 72.6817L136.217 72.8223C136.473 74.7015 138.071 75.8585 140.673 75.8585C143.217 75.8585 145.038 74.5609 145.045 72.6241C145.038 71.2051 144.112 70.355 142.207 69.965L140.43 69.6071C139.516 69.4089 139.177 69.0957 139.183 68.6227C139.177 68.0346 139.842 67.6511 140.685 67.6511C141.631 67.6511 142.194 68.1689 142.328 68.8017L144.821 68.6483ZM149.559 75.8521C151.01 75.8521 151.95 75.2193 152.429 74.3052H152.506V75.6667H155.088V69.0446C155.088 66.7051 153.107 65.7207 150.921 65.7207C148.568 65.7207 147.022 66.8457 146.644 68.6355L149.163 68.84C149.348 68.1881 149.93 67.7087 150.908 67.7087C151.835 67.7087 152.365 68.1753 152.365 68.9807V69.019C152.365 69.6518 151.694 69.7349 149.987 69.9011C148.044 70.0801 146.299 70.7321 146.299 72.9246C146.299 74.8677 147.686 75.8521 149.559 75.8521ZM150.339 73.9729C149.502 73.9729 148.901 73.5829 148.901 72.8351C148.901 72.068 149.534 71.6909 150.492 71.5567C151.087 71.4736 152.059 71.3329 152.384 71.1156V72.1575C152.384 73.1866 151.534 73.9729 150.339 73.9729ZM161.637 75.8585C164.251 75.8585 165.894 74.3244 166.022 72.068H163.452C163.293 73.1163 162.602 73.7044 161.669 73.7044C160.397 73.7044 159.572 72.6369 159.572 70.7577C159.572 68.904 160.403 67.8429 161.669 67.8429C162.666 67.8429 163.305 68.5013 163.452 69.4792H166.022C165.907 67.2101 164.187 65.7207 161.624 65.7207C158.646 65.7207 156.805 67.7854 156.805 70.796C156.805 73.7811 158.614 75.8585 161.637 75.8585ZM172.201 75.8585C175.18 75.8585 177.034 73.8194 177.034 70.796C177.034 67.7534 175.18 65.7207 172.201 65.7207C169.223 65.7207 167.369 67.7534 167.369 70.796C167.369 73.8194 169.223 75.8585 172.201 75.8585ZM172.214 73.7491C170.84 73.7491 170.137 72.4899 170.137 70.7768C170.137 69.0638 170.84 67.7981 172.214 67.7981C173.563 67.7981 174.266 69.0638 174.266 70.7768C174.266 72.4899 173.563 73.7491 172.214 73.7491ZM181.527 62.5758H178.804V75.6667H181.527V62.5758ZM186.508 75.8521C187.959 75.8521 188.899 75.2193 189.378 74.3052H189.455V75.6667H192.038V69.0446C192.038 66.7051 190.056 65.7207 187.87 65.7207C185.518 65.7207 183.971 66.8457 183.594 68.6355L186.112 68.84C186.297 68.1881 186.879 67.7087 187.857 67.7087C188.784 67.7087 189.315 68.1753 189.315 68.9807V69.019C189.315 69.6518 188.643 69.7349 186.937 69.9011C184.994 70.0801 183.248 70.7321 183.248 72.9246C183.248 74.8677 184.636 75.8521 186.508 75.8521ZM187.288 73.9729C186.451 73.9729 185.85 73.5829 185.85 72.8351C185.85 72.068 186.483 71.6909 187.442 71.5567C188.036 71.4736 189.008 71.3329 189.334 71.1156V72.1575C189.334 73.1866 188.484 73.9729 187.288 73.9729ZM202.791 75.8585C205.22 75.8585 206.856 74.676 207.239 72.8542L204.721 72.6881C204.446 73.4359 203.743 73.8258 202.835 73.8258C201.474 73.8258 200.611 72.9246 200.611 71.4608V71.4544H207.297V70.7065C207.297 67.3699 205.277 65.7207 202.682 65.7207C199.793 65.7207 197.92 67.7726 197.92 70.8024C197.92 73.9153 199.767 75.8585 202.791 75.8585ZM200.611 69.7669C200.668 68.6483 201.519 67.7534 202.727 67.7534C203.909 67.7534 204.727 68.5971 204.734 69.7669H200.611ZM217.243 68.6483C217 66.8393 215.543 65.7207 213.063 65.7207C210.551 65.7207 208.895 66.8841 208.901 68.7761C208.895 70.2463 209.822 71.1987 211.739 71.5822L213.44 71.921C214.296 72.0936 214.686 72.4068 214.699 72.899C214.686 73.4807 214.053 73.8962 213.101 73.8962C212.129 73.8962 211.484 73.4807 211.318 72.6817L208.639 72.8223C208.895 74.7015 210.493 75.8585 213.095 75.8585C215.639 75.8585 217.46 74.5609 217.467 72.6241C217.46 71.2051 216.533 70.355 214.629 69.965L212.852 69.6071C211.938 69.4089 211.599 69.0957 211.605 68.6227C211.599 68.0346 212.264 67.6511 213.107 67.6511C214.053 67.6511 214.616 68.1689 214.75 68.8017L217.243 68.6483ZM224.404 65.8486H222.556V63.4963H219.833V65.8486H218.491V67.894H219.833V73.0077C219.821 74.9317 221.131 75.8841 223.106 75.801C223.809 75.7754 224.308 75.6348 224.583 75.5453L224.154 73.519C224.02 73.5446 223.733 73.6085 223.477 73.6085C222.934 73.6085 222.556 73.404 222.556 72.6497V67.894H224.404V65.8486ZM228.977 75.8521C230.428 75.8521 231.368 75.2193 231.847 74.3052H231.924V75.6667H234.506V69.0446C234.506 66.7051 232.525 65.7207 230.339 65.7207C227.986 65.7207 226.44 66.8457 226.062 68.6355L228.581 68.84C228.766 68.1881 229.348 67.7087 230.326 67.7087C231.253 67.7087 231.783 68.1753 231.783 68.9807V69.019C231.783 69.6518 231.112 69.7349 229.405 69.9011C227.462 70.0801 225.717 70.7321 225.717 72.9246C225.717 74.8677 227.104 75.8521 228.977 75.8521ZM229.757 73.9729C228.92 73.9729 228.319 73.5829 228.319 72.8351C228.319 72.068 228.952 71.6909 229.91 71.5567C230.505 71.4736 231.476 71.3329 231.802 71.1156V72.1575C231.802 73.1866 230.952 73.9729 229.757 73.9729ZM229.463 64.5829H231.387L233.337 61.6746H230.818L229.463 64.5829ZM249.938 65.8486H247.055L245.023 72.8734H244.921L242.881 65.8486H240.005L243.438 75.6667H246.506L249.938 65.8486ZM253.85 75.8521C255.301 75.8521 256.241 75.2193 256.72 74.3052H256.797V75.6667H259.379V69.0446C259.379 66.7051 257.398 65.7207 255.212 65.7207C252.859 65.7207 251.313 66.8457 250.935 68.6355L253.454 68.84C253.639 68.1881 254.221 67.7087 255.199 67.7087C256.126 67.7087 256.656 68.1753 256.656 68.9807V69.019C256.656 69.6518 255.985 69.7349 254.278 69.9011C252.335 70.0801 250.59 70.7321 250.59 72.9246C250.59 74.8677 251.977 75.8521 253.85 75.8521ZM254.63 73.9729C253.793 73.9729 253.192 73.5829 253.192 72.8351C253.192 72.068 253.825 71.6909 254.783 71.5567C255.378 71.4736 256.35 71.3329 256.676 71.1156V72.1575C256.676 73.1866 255.825 73.9729 254.63 73.9729ZM261.441 75.6667H269.693V73.4935H265.014V73.4231L269.527 67.6192V65.8486H261.607V68.0219H266.248V68.0922L261.441 74.0432V75.6667ZM271.775 75.6667H274.498V65.8486H271.775V75.6667ZM273.143 64.5829C273.955 64.5829 274.62 63.9629 274.62 63.2023C274.62 62.448 273.955 61.828 273.143 61.828C272.338 61.828 271.673 62.448 271.673 63.2023C271.673 63.9629 272.338 64.5829 273.143 64.5829ZM279.479 75.8521C280.93 75.8521 281.87 75.2193 282.349 74.3052H282.426V75.6667H285.008V69.0446C285.008 66.7051 283.027 65.7207 280.841 65.7207C278.488 65.7207 276.941 66.8457 276.564 68.6355L279.083 68.84C279.268 68.1881 279.85 67.7087 280.828 67.7087C281.755 67.7087 282.285 68.1753 282.285 68.9807V69.019C282.285 69.6518 281.614 69.7349 279.907 69.9011C277.964 70.0801 276.219 70.7321 276.219 72.9246C276.219 74.8677 277.606 75.8521 279.479 75.8521ZM280.259 73.9729C279.422 73.9729 278.821 73.5829 278.821 72.8351C278.821 72.068 279.454 71.6909 280.412 71.5567C281.007 71.4736 281.978 71.3329 282.304 71.1156V72.1575C282.304 73.1866 281.454 73.9729 280.259 73.9729Z" fill="#333333"/>
<path d="M147.036 107L148.06 104.116H152.177L153.201 107H154.494L150.755 96.8182H149.482L145.744 107H147.036ZM148.448 103.023L150.079 98.429H150.158L151.789 103.023H148.448ZM158.804 107.159C160.276 107.159 160.773 106.244 161.031 105.827H161.171V107H162.304V96.8182H161.131V100.577H161.031C160.773 100.179 160.315 99.2642 158.824 99.2642C156.895 99.2642 155.563 100.795 155.563 103.202C155.563 105.628 156.895 107.159 158.804 107.159ZM158.963 106.105C157.492 106.105 156.736 104.812 156.736 103.182C156.736 101.571 157.472 100.318 158.963 100.318C160.395 100.318 161.151 101.472 161.151 103.182C161.151 104.912 160.375 106.105 158.963 106.105ZM164.616 107H165.789V99.3636H164.616V107ZM165.212 98.0909C165.67 98.0909 166.048 97.733 166.048 97.2955C166.048 96.858 165.67 96.5 165.212 96.5C164.755 96.5 164.377 96.858 164.377 97.2955C164.377 97.733 164.755 98.0909 165.212 98.0909ZM171.04 107.159C172.731 107.159 173.844 106.125 174.043 104.773H172.87C172.651 105.608 171.955 106.105 171.04 106.105C169.648 106.105 168.753 104.952 168.753 103.182C168.753 101.452 169.668 100.318 171.04 100.318C172.074 100.318 172.691 100.955 172.87 101.651H174.043C173.844 100.219 172.631 99.2642 171.021 99.2642C168.952 99.2642 167.58 100.895 167.58 103.222C167.58 105.509 168.893 107.159 171.04 107.159ZM175.758 107H176.932V99.3636H175.758V107ZM176.355 98.0909C176.812 98.0909 177.19 97.733 177.19 97.2955C177.19 96.858 176.812 96.5 176.355 96.5C175.898 96.5 175.52 96.858 175.52 97.2955C175.52 97.733 175.898 98.0909 176.355 98.0909ZM182.183 107.159C184.251 107.159 185.643 105.588 185.643 103.222C185.643 100.835 184.251 99.2642 182.183 99.2642C180.115 99.2642 178.723 100.835 178.723 103.222C178.723 105.588 180.115 107.159 182.183 107.159ZM182.183 106.105C180.612 106.105 179.896 104.753 179.896 103.222C179.896 101.69 180.612 100.318 182.183 100.318C183.754 100.318 184.47 101.69 184.47 103.222C184.47 104.753 183.754 106.105 182.183 106.105ZM188.608 102.406C188.608 101.074 189.433 100.318 190.556 100.318C191.645 100.318 192.306 101.029 192.306 102.227V107H193.48V102.148C193.48 100.199 192.441 99.2642 190.894 99.2642C189.741 99.2642 189.025 99.7812 188.667 100.557H188.568V99.3636H187.434V107H188.608V102.406ZM198.825 107.159C200.377 107.159 201.51 106.384 201.868 105.23L200.734 104.912C200.436 105.707 199.745 106.105 198.825 106.105C197.448 106.105 196.499 105.215 196.444 103.58H201.987V103.082C201.987 100.239 200.297 99.2642 198.706 99.2642C196.638 99.2642 195.266 100.895 195.266 103.241C195.266 105.588 196.618 107.159 198.825 107.159ZM196.444 102.565C196.524 101.377 197.364 100.318 198.706 100.318C199.979 100.318 200.794 101.273 200.794 102.565H196.444ZM207.71 107H208.883V99.3636H207.71V107ZM208.306 98.0909C208.764 98.0909 209.141 97.733 209.141 97.2955C209.141 96.858 208.764 96.5 208.306 96.5C207.849 96.5 207.471 96.858 207.471 97.2955C207.471 97.733 207.849 98.0909 208.306 98.0909ZM214.353 99.3636H212.722V97.5341H211.549V99.3636H210.396V100.358H211.549V105.131C211.549 106.463 212.623 107.099 213.617 107.099C214.055 107.099 214.333 107.02 214.492 106.96L214.253 105.906C214.154 105.926 213.995 105.966 213.736 105.966C213.219 105.966 212.722 105.807 212.722 104.812V100.358H214.353V99.3636ZM219.237 107.159C220.789 107.159 221.922 106.384 222.28 105.23L221.147 104.912C220.848 105.707 220.157 106.105 219.237 106.105C217.86 106.105 216.911 105.215 216.856 103.58H222.399V103.082C222.399 100.239 220.709 99.2642 219.118 99.2642C217.05 99.2642 215.678 100.895 215.678 103.241C215.678 105.588 217.03 107.159 219.237 107.159ZM216.856 102.565C216.936 101.377 217.776 100.318 219.118 100.318C220.391 100.318 221.206 101.273 221.206 102.565H216.856ZM225.358 102.406C225.358 101.074 226.183 100.318 227.306 100.318C228.395 100.318 229.056 101.029 229.056 102.227V107H230.23V102.148C230.23 100.199 229.191 99.2642 227.644 99.2642C226.491 99.2642 225.775 99.7812 225.417 100.557H225.318V99.3636H224.184V107H225.358V102.406ZM237.783 101.074C237.415 99.9901 236.59 99.2642 235.078 99.2642C233.467 99.2642 232.274 100.179 232.274 101.472C232.274 102.526 232.901 103.232 234.303 103.56L235.575 103.858C236.346 104.037 236.709 104.405 236.709 104.932C236.709 105.588 236.013 106.125 234.919 106.125C233.96 106.125 233.358 105.712 233.149 104.892L232.036 105.17C232.309 106.468 233.378 107.159 234.939 107.159C236.714 107.159 237.922 106.19 237.922 104.872C237.922 103.808 237.256 103.137 235.894 102.804L234.76 102.526C233.855 102.302 233.448 101.999 233.448 101.412C233.448 100.756 234.144 100.278 235.078 100.278C236.102 100.278 236.525 100.845 236.729 101.372L237.783 101.074Z" fill="#828282"/>
</svg>
